<?xml version="1.0" standalone="no"?>
<!DOCTYPE svg PUBLIC "-//W3C//DTD SVG 20010904//EN"
 "http://www.w3.org/TR/2001/REC-SVG-20010904/DTD/svg10.dtd">
<svg version="1.0" xmlns="http://www.w3.org/2000/svg"
 width="700.000000pt" height="700.000000pt" viewBox="0 0 700.000000 700.000000"
 preserveAspectRatio="xMidYMid meet">
<metadata>
Created by potrace 1.14, written by Peter Selinger 2001-2017
</metadata>
<g transform="translate(0.000000,700.000000) scale(0.100000,-0.100000)"
fill="#000000" stroke="none">
<path d="M3177 6994 c-1 -1 -29 -5 -62 -9 -33 -3 -71 -8 -85 -10 -14 -2 -50
-7 -80 -10 -30 -3 -59 -10 -64 -15 -10 -10 -13 -1771 -3 -1787 3 -5 51 -38
106 -72 56 -35 102 -66 102 -70 1 -3 2 -577 3 -1274 1 -1181 0 -1270 -16
-1278 -9 -5 -44 -9 -77 -9 l-61 0 0 -1185 0 -1185 33 -1 c17 0 41 -2 52 -4 11
-2 54 -7 95 -10 41 -3 87 -8 103 -11 l27 -4 0 3470 0 3471 -35 -3 c-20 -1 -37
-3 -38 -4z"/>
<path d="M3500 5903 l0 -1100 68 -26 c37 -14 86 -31 108 -38 l41 -11 0 -1128
0 -1127 -46 -1 c-25 0 -60 0 -77 -1 l-31 -1 0 -1205 0 -1205 126 5 c140 5 167
8 177 18 8 8 12 6897 4 6898 -3 0 -14 3 -25 5 -11 3 -93 8 -182 11 l-163 6 0
-1100z"/>
<path d="M4125 6927 c-2 -7 -3 -532 -2 -1167 l2 -1155 108 -24 107 -24 0
-1059 0 -1058 -52 6 c-29 4 -64 7 -78 8 l-25 1 0 -1163 c0 -769 3 -1162 10
-1163 36 -4 149 23 250 59 l50 18 0 3327 0 3327 -75 23 c-41 13 -78 19 -81 15
-3 -5 -12 -6 -20 -4 -8 3 -54 14 -102 25 -64 14 -89 16 -92 8z"/>
<path d="M2425 6842 l-170 -58 0 -529 0 -530 29 -35 c17 -19 66 -73 110 -120
l81 -85 -1 -1535 0 -1535 -40 -7 c-21 -4 -56 -8 -76 -9 -21 -2 -38 -8 -39 -13
0 -6 -1 -489 -2 -1074 l-2 -1062 30 -9 c124 -39 242 -74 262 -77 l23 -4 0
3370 c0 3203 -1 3370 -17 3370 -10 0 -94 -27 -188 -58z"/>
<path d="M4745 5635 l0 -1125 40 -5 c22 -4 68 -7 102 -9 34 -1 65 -5 69 -8 3
-4 7 -487 8 -1073 l1 -1065 -25 5 c-14 2 -41 7 -60 10 -19 3 -42 8 -51 11 -10
3 -18 -2 -20 -13 -4 -15 -3 -2054 0 -2074 1 -6 91 32 121 51 8 6 54 28 101 51
l86 41 0 3084 -1 3083 -35 17 c-20 9 -58 28 -86 41 -71 34 -232 103 -242 103
-4 0 -8 -506 -8 -1125z"/>
<path d="M1925 6633 c-38 -19 -73 -40 -76 -45 -3 -5 -29 -20 -56 -33 -28 -12
-53 -27 -56 -32 -4 -5 21 -61 53 -124 l60 -114 0 -1982 c0 -1091 -1 -1983 -2
-1983 -2 -1 -21 -3 -43 -6 -22 -4 -56 -11 -75 -18 l-35 -11 0 -873 c0 -481 2
-877 5 -881 4 -6 36 -27 105 -68 28 -17 166 -88 186 -95 14 -5 16 281 15 3148
0 1735 -2 3154 -5 3154 -3 -1 -37 -17 -76 -37z"/>
<path d="M5367 5496 c0 -517 1 -947 2 -954 1 -10 11 -12 39 -8 20 3 64 8 97
12 33 3 63 8 68 11 4 2 8 1 8 -4 5 -31 3 -2327 -2 -2334 -3 -5 -31 0 -64 11
-32 11 -64 20 -72 20 -11 0 -13 -136 -13 -795 0 -437 2 -795 5 -795 12 0 94
57 196 136 l109 85 0 2649 0 2650 -72 53 c-40 30 -76 55 -80 56 -5 0 -45 28
-90 62 -45 33 -93 66 -107 74 l-26 13 2 -942z"/>
<path d="M1298 6240 l-68 -62 0 -2009 0 -2008 -37 -10 c-21 -6 -59 -15 -85
-22 -42 -10 -48 -15 -49 -38 -1 -41 -1 -970 1 -1026 1 -44 5 -53 34 -75 18
-14 62 -51 97 -84 78 -71 168 -141 174 -134 3 3 4 1248 3 2767 l-3 2763 -67
-62z"/>
<path d="M5990 5306 l0 -636 28 6 c15 4 61 19 101 35 41 16 77 26 80 23 4 -3
6 -621 7 -1373 l0 -1368 -50 23 c-28 12 -63 26 -78 29 l-28 7 0 -446 c0 -245
2 -446 4 -446 11 0 206 246 285 360 l24 35 0 1961 0 1961 -45 69 c-44 68 -170
223 -274 338 l-54 59 0 -637z"/>
<path d="M718 5643 c-19 -27 -53 -74 -74 -106 l-38 -58 0 -1767 -1 -1766 -75
-32 c-69 -28 -75 -33 -78 -62 -3 -24 10 -54 49 -120 69 -114 259 -378 260
-361 4 77 3 4319 -1 4319 -3 0 -22 -21 -42 -47z"/>
<path d="M6502 5065 c0 -175 0 -176 22 -169 26 8 104 53 111 64 3 4 -26 69
-64 144 l-69 137 0 -176z"/>
<path d="M130 4485 c0 -2 -11 -48 -24 -102 -50 -198 -73 -336 -93 -543 -10
-98 -10 -512 -1 -615 21 -222 68 -477 117 -630 6 -20 10 303 10 933 1 529 -1
962 -4 962 -3 0 -5 -2 -5 -5z"/>
<path d="M6813 3530 c0 -529 4 -955 8 -948 11 20 56 212 78 333 21 116 28 169
37 275 3 36 7 79 9 95 6 40 6 414 0 490 -11 148 -16 189 -41 345 -17 100 -71
336 -84 358 -4 8 -7 -419 -7 -948z"/>
</g>
</svg>
