<svg xmlns="http://www.w3.org/2000/svg" viewBox="0 0 46.27 35.1"><path d="M43.43,15.53a4.48,4.48,0,0,0,2.83,1" fill="none" stroke="#000" stroke-width="1.02"/><path d="M16.63,11.16a4.79,4.79,0,0,1,4.92.75" fill="none" stroke="#000" stroke-width="1.02"/><path d="M0,10.8a4.49,4.49,0,0,1,2.74.89" fill="none" stroke="#000" stroke-width="1.02"/><path d="M16.19,10.3C14.8,5.9,10.8,3.52,7.26,5S2,11.16,3.34,15.52s5.38,6.78,8.93,5.34S17.57,14.68,16.19,10.3Z" fill="none" stroke="#000" stroke-width="1.02"/><line x1="11.68" y1="24.9" x2="10.21" y2="15.57" fill="none" stroke="#000" stroke-width="1.02"/><path d="M42.15,23.46a5.13,5.13,0,0,0,4.1,2.21" fill="none" stroke="#000" stroke-width="1.02"/><path d="M0,20c4.62,0,4.62,5.67,9.25,5.67S13.88,20,18.5,20a4.42,4.42,0,0,1,1.73.31" fill="none" stroke="#000" stroke-width="1.02"/><polyline points="40.94 31.05 43.96 12.11 34.57 0.68 22.09 8.63 18.85 28.94" fill="none" stroke="#000" stroke-width="1.02"/><polyline points="37.61 28.98 38.89 20.94 35.2 20.35 33.62 30.3" fill="none" stroke="#000" stroke-width="1.02"/><path d="M0,28.91c4.62,0,4.62,5.68,9.25,5.68s4.62-5.68,9.24-5.68,4.63,5.68,9.26,5.68,4.62-5.68,9.25-5.68,4.62,5.68,9.25,5.68" fill="none" stroke="#000" stroke-width="1.02"/></svg>