<svg xmlns="http://www.w3.org/2000/svg" viewBox="0 0 41.02 41.02"><path d="M20.5,40.51a20,20,0,0,1,0-40c1.29,0,2.4,1.64,3.61,1.89S27,1.56,28.16,2s1.52,2.43,2.61,3.13,3,.32,3.88,1.21.51,2.83,1.21,3.88S38.5,11.68,39,12.88s-.62,2.79-.37,4,1.88,2.29,1.88,3.61-1.67,2.37-1.88,3.59.84,2.9.37,4-2.43,1.53-3.13,2.62-.33,3-1.21,3.87-2.84.52-3.88,1.22S29.33,38.5,28.14,39s-2.79-.61-4.05-.36S21.79,40.51,20.5,40.51Z" fill="none" stroke="#000" stroke-width="1.02"/><line x1="20.5" y1="0.51" x2="20.5" y2="40.51" fill="none" stroke="#000" stroke-width="1.02"/><line x1="0.51" y1="20.51" x2="40.5" y2="20.51" fill="none" stroke="#000" stroke-width="1.02"/><path d="M20.5,40.51c-5.47,0-9.92-9-9.92-20S15,.52,20.5.52" fill="none" stroke="#000" stroke-width="1.02"/><path d="M24.73,2.42c3.36,3.2,5.7,10.1,5.7,18.09S28.14,35.4,24.75,38.6" fill="none" stroke="#000" stroke-width="1.02"/><path d="M6.27,34.56A47.61,47.61,0,0,1,20.5,32.62a47.54,47.54,0,0,1,14.18,1.92" fill="none" stroke="#000" stroke-width="1.02"/><path d="M6.27,6.47A47.93,47.93,0,0,0,20.5,8.41,47.87,47.87,0,0,0,34.68,6.48" fill="none" stroke="#000" stroke-width="1.02"/></svg>