<svg xmlns="http://www.w3.org/2000/svg" viewBox="0 0 47.28 44.6"><path d="M21.8,27.18c-.28,8.92-.55,13.11-8.2,15.66C-3.1,48.34.05,34.33,2.42,25.8c2.57-9.2,8-15.52,12.21-15.23S22.07,18.26,21.8,27.18Z" fill="none" stroke="#000" stroke-width="1.02"/><path d="M23.64,0c0,22.74-14.75,19.09-14.75,36.58" fill="none" stroke="#000" stroke-width="1.02"/><path d="M15.13,39.88c0-4.37-2.15-6.81-6-6.81" fill="none" stroke="#000" stroke-width="1.02"/><path d="M13.05,34.33c0-3.11,1.93-4.85,5.39-4.85" fill="none" stroke="#000" stroke-width="1.02"/><path d="M9.66,30.39c0-2.89-1.84-4.5-5.15-4.5" fill="none" stroke="#000" stroke-width="1.02"/><path d="M7.93,26.39c0-2.69,1.33-4.19,3.7-4.19" fill="none" stroke="#000" stroke-width="1.02"/><path d="M15.74,20.84c0-2.16-1.82-3.37-5.09-3.37" fill="none" stroke="#000" stroke-width="1.02"/><path d="M13.2,17.77c0-1.94.91-3,2.54-3" fill="none" stroke="#000" stroke-width="1.02"/><path d="M3.76,39.69c0-4.25,1.92-6.62,5.35-6.62" fill="none" stroke="#000" stroke-width="1.02"/><path d="M14.63,22.2c0,3,1.68,4.62,4.72,4.62" fill="none" stroke="#000" stroke-width="1.02"/><path d="M5.61,40.48a.63.63,0,0,0,0,1.23A.63.63,0,0,0,6.08,41a.61.61,0,0,0-.47-.47" fill-rule="evenodd"/><path d="M8.77,39.08a.63.63,0,0,0-.55.7.62.62,0,0,0,.55.55.63.63,0,0,0,.56-.7.62.62,0,0,0-.56-.55" fill-rule="evenodd"/><path d="M11.84,40.07a.63.63,0,0,0,0,1.25.63.63,0,0,0,0-1.25" fill-rule="evenodd"/><path d="M18.36,35.69a.63.63,0,0,0-.55.7.62.62,0,0,0,.55.55.63.63,0,0,0,0-1.25" fill-rule="evenodd"/><path d="M16.35,33.31a.63.63,0,0,0-.56.7.62.62,0,0,0,.56.55.63.63,0,0,0,.55-.69.62.62,0,0,0-.55-.56" fill-rule="evenodd"/><path d="M19.44,32.55a.63.63,0,0,0-.55.7.62.62,0,0,0,.55.55.63.63,0,0,0,.56-.7.62.62,0,0,0-.56-.55" fill-rule="evenodd"/><path d="M11.4,36.63a.63.63,0,1,0,.63.62.62.62,0,0,0-.63-.62" fill-rule="evenodd"/><path d="M6.36,36.84a.63.63,0,0,0-.56.7.64.64,0,0,0,.56.56.64.64,0,0,0,0-1.26" fill-rule="evenodd"/><path d="M2.33,34.24a.64.64,0,0,0,0,1.26.63.63,0,0,0,.56-.7.64.64,0,0,0-.56-.56" fill-rule="evenodd"/><path d="M3.15,31a.63.63,0,0,0-.55.7.62.62,0,0,0,.55.55.63.63,0,0,0,0-1.25" fill-rule="evenodd"/><path d="M5.46,31.43a.63.63,0,0,0,0,1.26.64.64,0,0,0,0-1.26" fill-rule="evenodd"/><path d="M12,30.24a.63.63,0,0,0-.56.7.62.62,0,0,0,.56.55.63.63,0,0,0,.55-.7.62.62,0,0,0-.55-.55" fill-rule="evenodd"/><path d="M5.92,29a.63.63,0,0,0-.55.7.62.62,0,0,0,.55.55.63.63,0,0,0,0-1.25" fill-rule="evenodd"/><path d="M13.72,27.62a.62.62,0,0,0-.63.62.63.63,0,0,0,1.25,0,.62.62,0,0,0-.62-.62" fill-rule="evenodd"/><path d="M19.54,23.61a.63.63,0,0,0-.55.7.62.62,0,0,0,.55.55.63.63,0,0,0,0-1.25" fill-rule="evenodd"/><path d="M6.28,21.44a.64.64,0,0,0,0,1.26.63.63,0,0,0,.56-.7.64.64,0,0,0-.56-.56" fill-rule="evenodd"/><path d="M11.26,19.1a.63.63,0,0,0-.56.7.66.66,0,0,0,.56.56.64.64,0,0,0,.55-.7.62.62,0,0,0-.55-.56" fill-rule="evenodd"/><path d="M12.41,12.5a.64.64,0,0,0,0,1.26.63.63,0,0,0,.56-.7.66.66,0,0,0-.56-.56" fill-rule="evenodd"/><path d="M25.48,27.18c.28,8.92.55,13.11,8.2,15.66,16.7,5.5,13.55-8.51,11.17-17-2.56-9.2-8-15.52-12.2-15.23S25.21,18.26,25.48,27.18Z" fill="none" stroke="#000" stroke-width="1.02"/><path d="M23.64,0c0,22.74,14.75,19.09,14.75,36.58" fill="none" stroke="#000" stroke-width="1.02"/><path d="M32.14,39.88c0-4.37,2.16-6.81,6-6.81" fill="none" stroke="#000" stroke-width="1.02"/><path d="M34.23,34.33s-1.93-4.85-5.39-4.85" fill="none" stroke="#000" stroke-width="1.02"/><path d="M37.62,30.39c0-2.89,1.83-4.5,5.14-4.5" fill="none" stroke="#000" stroke-width="1.02"/><path d="M39.35,26.39c0-2.69-1.33-4.19-3.71-4.19" fill="none" stroke="#000" stroke-width="1.02"/><path d="M31.54,20.84c0-2.16,1.82-3.37,5.09-3.37" fill="none" stroke="#000" stroke-width="1.02"/><path d="M34.08,17.77c0-1.94-.91-3-2.54-3" fill="none" stroke="#000" stroke-width="1.02"/><path d="M43.52,39.69c0-4.25-1.92-6.62-5.35-6.62" fill="none" stroke="#000" stroke-width="1.02"/><path d="M32.65,22.2c0,3-1.69,4.62-4.72,4.62" fill="none" stroke="#000" stroke-width="1.02"/><path d="M41.67,40.48a.63.63,0,0,1,.47.76.51.51,0,1,1-.47-.76" fill-rule="evenodd"/><path d="M38.5,39.08a.63.63,0,0,1,.56.7.62.62,0,0,1-.56.55.63.63,0,0,1-.55-.7.62.62,0,0,1,.55-.55" fill-rule="evenodd"/><path d="M35.44,40.07a.63.63,0,1,1-.62.62.62.62,0,0,1,.62-.62" fill-rule="evenodd"/><path d="M28.92,35.69a.63.63,0,0,1,.55.7.62.62,0,0,1-.55.55.63.63,0,0,1-.56-.7.62.62,0,0,1,.56-.55" fill-rule="evenodd"/><path d="M30.93,33.31a.63.63,0,1,1-.55.56.62.62,0,0,1,.55-.56" fill-rule="evenodd"/><path d="M27.83,32.55a.63.63,0,0,1,.56.7.62.62,0,0,1-.56.55.63.63,0,0,1-.55-.7.62.62,0,0,1,.55-.55" fill-rule="evenodd"/><path d="M35.87,36.63a.63.63,0,1,1-.62.62.63.63,0,0,1,.62-.62" fill-rule="evenodd"/><path d="M40.92,36.84a.63.63,0,0,1,.56.7.66.66,0,0,1-.56.56.64.64,0,0,1,0-1.26" fill-rule="evenodd"/><path d="M44.94,34.24a.64.64,0,1,1-.55.56.64.64,0,0,1,.55-.56" fill-rule="evenodd"/><path d="M44.13,31a.63.63,0,0,1,.55.7.62.62,0,0,1-.55.55.63.63,0,0,1-.56-.7.62.62,0,0,1,.56-.55" fill-rule="evenodd"/><path d="M41.82,31.43a.64.64,0,0,1,.56.7.66.66,0,0,1-.56.56.64.64,0,0,1,0-1.26" fill-rule="evenodd"/><path d="M35.33,30.24a.63.63,0,1,1-.55.55.62.62,0,0,1,.55-.55" fill-rule="evenodd"/><path d="M41.36,29a.63.63,0,0,1,.55.7.62.62,0,0,1-.55.55.63.63,0,0,1-.56-.7.62.62,0,0,1,.56-.55" fill-rule="evenodd"/><path d="M33.56,27.62a.62.62,0,0,1,.63.62.63.63,0,0,1-1.25,0,.62.62,0,0,1,.62-.62" fill-rule="evenodd"/><path d="M27.74,23.61a.63.63,0,0,1,.55.7.62.62,0,0,1-.55.55.63.63,0,0,1-.56-.7.62.62,0,0,1,.56-.55" fill-rule="evenodd"/><path d="M41,21.44a.64.64,0,1,1-.55.56.64.64,0,0,1,.55-.56" fill-rule="evenodd"/><path d="M36,19.1a.63.63,0,0,1,.56.7.66.66,0,0,1-.56.56.63.63,0,0,1-.55-.7A.62.62,0,0,1,36,19.1" fill-rule="evenodd"/><path d="M34.87,12.5a.63.63,0,1,1-.56.56.64.64,0,0,1,.56-.56" fill-rule="evenodd"/></svg>