<svg xmlns="http://www.w3.org/2000/svg" viewBox="0 0 40.07 37.22"><path d="M21.19,18.23a2.14,2.14,0,0,0-3,.66A2.2,2.2,0,0,0,17.89,20a2.15,2.15,0,0,0,1,1.81,2.19,2.19,0,0,0,2.31,0,2.14,2.14,0,0,0,0-3.62Z" fill="none" stroke="#000" stroke-width="1.02"/><path d="M14.43,20H.51A19.5,19.5,0,0,0,9.57,36.5L17,24.77a.77.77,0,0,0-.15-1,4.89,4.89,0,0,1-1.7-3.07A.76.76,0,0,0,14.43,20Z" fill="none" stroke="#000" stroke-width="1.02"/><path d="M9,33.43A17.24,17.24,0,0,1,2.8,22.18H13.32" fill="none" stroke="#000" stroke-width="1.02"/><path d="M20,15.14a4.77,4.77,0,0,1,2,.45.78.78,0,0,0,1-.29L30.5,3.55a19.55,19.55,0,0,0-20.93,0L17,15.3a.78.78,0,0,0,1,.29A4.81,4.81,0,0,1,20,15.14Z" fill="none" stroke="#000" stroke-width="1.02"/><path d="M12.61,4.33a17.34,17.34,0,0,1,14.86,0l-5.65,8.89" fill="none" stroke="#000" stroke-width="1.02"/><path d="M23,24.77,30.5,36.51a19.48,19.48,0,0,0,9.06-16.46H25.65a.77.77,0,0,0-.76.66,4.87,4.87,0,0,1-1.7,3.08A.76.76,0,0,0,23,24.77Z" fill="none" stroke="#000" stroke-width="1.02"/><path d="M37.28,22.18a17.26,17.26,0,0,1-6.19,11.25l-5.64-8.88" fill="none" stroke="#000" stroke-width="1.02"/></svg>